<?xml version="1.0" encoding="UTF-8"?>
<svg xmlns="http://www.w3.org/2000/svg" xmlns:xlink="http://www.w3.org/1999/xlink" width="2000" height="2000" viewBox="0 0 2000 2000">
<defs>
<clipPath id="clip-0">
<path clip-rule="nonzero" d="M 362 572 L 1638 572 L 1638 1428 L 362 1428 Z M 362 572 "/>
</clipPath>
<clipPath id="clip-1">
<path clip-rule="nonzero" d="M 1352.640625 752.121094 C 1341.589844 752.121094 1332.640625 761.070312 1332.640625 772.121094 L 1332.640625 1227.878906 C 1332.640625 1238.929688 1341.589844 1247.878906 1352.640625 1247.878906 C 1363.691406 1247.878906 1372.640625 1238.929688 1372.640625 1227.878906 L 1372.640625 772.121094 C 1372.640625 761.070312 1363.691406 752.121094 1352.640625 752.121094 Z M 1176.320312 588.5 C 1165.269531 588.5 1156.320312 597.449219 1156.320312 608.5 L 1156.320312 1391.5 C 1156.320312 1402.550781 1165.269531 1411.5 1176.320312 1411.5 C 1187.371094 1411.5 1196.320312 1402.550781 1196.320312 1391.5 L 1196.320312 608.5 C 1196.320312 597.449219 1187.371094 588.5 1176.320312 588.5 Z M 1264.480469 699.199219 C 1253.429688 699.199219 1244.480469 708.148438 1244.480469 719.199219 L 1244.480469 1280.800781 C 1244.480469 1291.851562 1253.429688 1300.800781 1264.480469 1300.800781 C 1275.53125 1300.800781 1284.480469 1291.851562 1284.480469 1280.800781 L 1284.480469 719.199219 C 1284.480469 708.148438 1275.53125 699.199219 1264.480469 699.199219 Z M 1440.800781 798.019531 C 1429.75 798.019531 1420.800781 806.96875 1420.800781 818.019531 L 1420.800781 1181.980469 C 1420.800781 1193.03125 1429.75 1201.980469 1440.800781 1201.980469 C 1451.851562 1201.980469 1460.800781 1193.03125 1460.800781 1181.980469 L 1460.800781 818.019531 C 1460.800781 806.96875 1451.851562 798.019531 1440.800781 798.019531 Z M 823.679688 572.839844 C 812.632812 572.839844 803.679688 581.789062 803.679688 592.839844 L 803.679688 1407.160156 C 803.679688 1418.210938 812.632812 1427.160156 823.679688 1427.160156 C 834.726562 1427.160156 843.679688 1418.210938 843.679688 1407.160156 L 843.679688 592.839844 C 843.679688 581.789062 834.726562 572.839844 823.679688 572.839844 Z M 1000 808.820312 C 988.953125 808.820312 980 817.769531 980 828.820312 L 980 1171.179688 C 980 1182.230469 988.953125 1191.179688 1000 1191.179688 C 1011.050781 1191.179688 1020 1182.230469 1020 1171.179688 L 1020 828.820312 C 1020 817.769531 1011.050781 808.820312 1000 808.820312 Z M 911.839844 701.898438 C 900.792969 701.898438 891.839844 710.851562 891.839844 721.898438 L 891.839844 1278.101562 C 891.839844 1289.148438 900.792969 1298.101562 911.839844 1298.101562 C 922.886719 1298.101562 931.839844 1289.148438 931.839844 1278.101562 L 931.839844 721.898438 C 931.839844 710.851562 922.886719 701.898438 911.839844 701.898438 Z M 1088.160156 710.539062 C 1077.109375 710.539062 1068.160156 719.488281 1068.160156 730.539062 L 1068.160156 1269.460938 C 1068.160156 1280.511719 1077.109375 1289.460938 1088.160156 1289.460938 C 1099.210938 1289.460938 1108.160156 1280.511719 1108.160156 1269.460938 L 1108.160156 730.539062 C 1108.160156 719.488281 1099.210938 710.539062 1088.160156 710.539062 Z M 647.359375 867.679688 C 636.3125 867.679688 627.359375 876.628906 627.359375 887.679688 L 627.359375 1112.320312 C 627.359375 1123.371094 636.3125 1132.320312 647.359375 1132.320312 C 658.40625 1132.320312 667.359375 1123.371094 667.359375 1112.320312 L 667.359375 887.679688 C 667.359375 876.628906 658.40625 867.679688 647.359375 867.679688 Z M 735.519531 776.960938 C 724.472656 776.960938 715.519531 785.910156 715.519531 796.960938 L 715.519531 1203.039062 C 715.519531 1214.089844 724.472656 1223.039062 735.519531 1223.039062 C 746.566406 1223.039062 755.519531 1214.089844 755.519531 1203.039062 L 755.519531 796.960938 C 755.519531 785.910156 746.566406 776.960938 735.519531 776.960938 Z M 471.039062 679.21875 C 459.992188 679.21875 451.039062 688.171875 451.039062 699.21875 L 451.039062 1300.78125 C 451.039062 1311.828125 459.992188 1320.78125 471.039062 1320.78125 C 482.085938 1320.78125 491.039062 1311.828125 491.039062 1300.78125 L 491.039062 699.21875 C 491.039062 688.171875 482.085938 679.21875 471.039062 679.21875 Z M 559.199219 776.960938 C 548.152344 776.960938 539.199219 785.910156 539.199219 796.960938 L 539.199219 1203.039062 C 539.199219 1214.089844 548.152344 1223.039062 559.199219 1223.039062 C 570.246094 1223.039062 579.199219 1214.089844 579.199219 1203.039062 L 579.199219 796.960938 C 579.199219 785.910156 570.246094 776.960938 559.199219 776.960938 Z M 382.878906 929.78125 C 371.835938 929.78125 362.878906 938.730469 362.878906 949.78125 L 362.878906 1050.21875 C 362.878906 1061.269531 371.835938 1070.21875 382.878906 1070.21875 C 393.925781 1070.21875 402.878906 1061.269531 402.878906 1050.21875 L 402.878906 949.78125 C 402.878906 938.730469 393.925781 929.78125 382.878906 929.78125 Z M 1617.121094 787.761719 C 1606.070312 787.761719 1597.121094 796.710938 1597.121094 807.761719 L 1597.121094 1192.238281 C 1597.121094 1203.289062 1606.070312 1212.238281 1617.121094 1212.238281 C 1628.171875 1212.238281 1637.121094 1203.289062 1637.121094 1192.238281 L 1637.121094 807.761719 C 1637.121094 796.710938 1628.171875 787.761719 1617.121094 787.761719 Z M 1548.960938 919.808594 L 1548.960938 1080.191406 C 1548.960938 1091.238281 1540.011719 1100.191406 1528.960938 1100.191406 C 1517.910156 1100.191406 1508.960938 1091.238281 1508.960938 1080.191406 L 1508.960938 919.808594 C 1508.960938 908.761719 1517.910156 899.808594 1528.960938 899.808594 C 1540.011719 899.808594 1548.960938 908.761719 1548.960938 919.808594 Z M 1548.960938 919.808594 "/>
</clipPath>
<clipPath id="clip-2">
<path clip-rule="nonzero" d="M 1352.640625 752.121094 C 1341.589844 752.121094 1332.640625 761.070312 1332.640625 772.121094 L 1332.640625 1227.878906 C 1332.640625 1238.929688 1341.589844 1247.878906 1352.640625 1247.878906 C 1363.691406 1247.878906 1372.640625 1238.929688 1372.640625 1227.878906 L 1372.640625 772.121094 C 1372.640625 761.070312 1363.691406 752.121094 1352.640625 752.121094 Z M 1176.320312 588.5 C 1165.269531 588.5 1156.320312 597.449219 1156.320312 608.5 L 1156.320312 1391.5 C 1156.320312 1402.550781 1165.269531 1411.5 1176.320312 1411.5 C 1187.371094 1411.5 1196.320312 1402.550781 1196.320312 1391.5 L 1196.320312 608.5 C 1196.320312 597.449219 1187.371094 588.5 1176.320312 588.5 Z M 1264.480469 699.199219 C 1253.429688 699.199219 1244.480469 708.148438 1244.480469 719.199219 L 1244.480469 1280.800781 C 1244.480469 1291.851562 1253.429688 1300.800781 1264.480469 1300.800781 C 1275.53125 1300.800781 1284.480469 1291.851562 1284.480469 1280.800781 L 1284.480469 719.199219 C 1284.480469 708.148438 1275.53125 699.199219 1264.480469 699.199219 Z M 1440.800781 798.019531 C 1429.75 798.019531 1420.800781 806.96875 1420.800781 818.019531 L 1420.800781 1181.980469 C 1420.800781 1193.03125 1429.75 1201.980469 1440.800781 1201.980469 C 1451.851562 1201.980469 1460.800781 1193.03125 1460.800781 1181.980469 L 1460.800781 818.019531 C 1460.800781 806.96875 1451.851562 798.019531 1440.800781 798.019531 Z M 823.679688 572.839844 C 812.632812 572.839844 803.679688 581.789062 803.679688 592.839844 L 803.679688 1407.160156 C 803.679688 1418.210938 812.632812 1427.160156 823.679688 1427.160156 C 834.726562 1427.160156 843.679688 1418.210938 843.679688 1407.160156 L 843.679688 592.839844 C 843.679688 581.789062 834.726562 572.839844 823.679688 572.839844 Z M 1000 808.820312 C 988.953125 808.820312 980 817.769531 980 828.820312 L 980 1171.179688 C 980 1182.230469 988.953125 1191.179688 1000 1191.179688 C 1011.050781 1191.179688 1020 1182.230469 1020 1171.179688 L 1020 828.820312 C 1020 817.769531 1011.050781 808.820312 1000 808.820312 Z M 911.839844 701.898438 C 900.792969 701.898438 891.839844 710.851562 891.839844 721.898438 L 891.839844 1278.101562 C 891.839844 1289.148438 900.792969 1298.101562 911.839844 1298.101562 C 922.886719 1298.101562 931.839844 1289.148438 931.839844 1278.101562 L 931.839844 721.898438 C 931.839844 710.851562 922.886719 701.898438 911.839844 701.898438 Z M 1088.160156 710.539062 C 1077.109375 710.539062 1068.160156 719.488281 1068.160156 730.539062 L 1068.160156 1269.460938 C 1068.160156 1280.511719 1077.109375 1289.460938 1088.160156 1289.460938 C 1099.210938 1289.460938 1108.160156 1280.511719 1108.160156 1269.460938 L 1108.160156 730.539062 C 1108.160156 719.488281 1099.210938 710.539062 1088.160156 710.539062 Z M 647.359375 867.679688 C 636.3125 867.679688 627.359375 876.628906 627.359375 887.679688 L 627.359375 1112.320312 C 627.359375 1123.371094 636.3125 1132.320312 647.359375 1132.320312 C 658.40625 1132.320312 667.359375 1123.371094 667.359375 1112.320312 L 667.359375 887.679688 C 667.359375 876.628906 658.40625 867.679688 647.359375 867.679688 Z M 735.519531 776.960938 C 724.472656 776.960938 715.519531 785.910156 715.519531 796.960938 L 715.519531 1203.039062 C 715.519531 1214.089844 724.472656 1223.039062 735.519531 1223.039062 C 746.566406 1223.039062 755.519531 1214.089844 755.519531 1203.039062 L 755.519531 796.960938 C 755.519531 785.910156 746.566406 776.960938 735.519531 776.960938 Z M 471.039062 679.21875 C 459.992188 679.21875 451.039062 688.171875 451.039062 699.21875 L 451.039062 1300.78125 C 451.039062 1311.828125 459.992188 1320.78125 471.039062 1320.78125 C 482.085938 1320.78125 491.039062 1311.828125 491.039062 1300.78125 L 491.039062 699.21875 C 491.039062 688.171875 482.085938 679.21875 471.039062 679.21875 Z M 559.199219 776.960938 C 548.152344 776.960938 539.199219 785.910156 539.199219 796.960938 L 539.199219 1203.039062 C 539.199219 1214.089844 548.152344 1223.039062 559.199219 1223.039062 C 570.246094 1223.039062 579.199219 1214.089844 579.199219 1203.039062 L 579.199219 796.960938 C 579.199219 785.910156 570.246094 776.960938 559.199219 776.960938 Z M 382.878906 929.78125 C 371.835938 929.78125 362.878906 938.730469 362.878906 949.78125 L 362.878906 1050.21875 C 362.878906 1061.269531 371.835938 1070.21875 382.878906 1070.21875 C 393.925781 1070.21875 402.878906 1061.269531 402.878906 1050.21875 L 402.878906 949.78125 C 402.878906 938.730469 393.925781 929.78125 382.878906 929.78125 Z M 1617.121094 787.761719 C 1606.070312 787.761719 1597.121094 796.710938 1597.121094 807.761719 L 1597.121094 1192.238281 C 1597.121094 1203.289062 1606.070312 1212.238281 1617.121094 1212.238281 C 1628.171875 1212.238281 1637.121094 1203.289062 1637.121094 1192.238281 L 1637.121094 807.761719 C 1637.121094 796.710938 1628.171875 787.761719 1617.121094 787.761719 Z M 1548.960938 919.808594 L 1548.960938 1080.191406 C 1548.960938 1091.238281 1540.011719 1100.191406 1528.960938 1100.191406 C 1517.910156 1100.191406 1508.960938 1091.238281 1508.960938 1080.191406 L 1508.960938 919.808594 C 1508.960938 908.761719 1517.910156 899.808594 1528.960938 899.808594 C 1540.011719 899.808594 1548.960938 908.761719 1548.960938 919.808594 "/>
</clipPath>
<linearGradient id="linear-pattern-0" gradientUnits="userSpaceOnUse" x1="-0.00144311" y1="0" x2="1.020147" y2="0" gradientTransform="matrix(-1247.31, 0, 0, -1247.31, 1635.32, 1000)">
<stop offset="0" stop-color="rgb(34.901428%, 47.058105%, 70.587158%)" stop-opacity="1"/>
<stop offset="0.00390625" stop-color="rgb(35.20813%, 46.809387%, 70.489502%)" stop-opacity="1"/>
<stop offset="0.0078125" stop-color="rgb(35.516357%, 46.560669%, 70.391846%)" stop-opacity="1"/>
<stop offset="0.0117188" stop-color="rgb(35.891724%, 46.257019%, 70.272827%)" stop-opacity="1"/>
<stop offset="0.015625" stop-color="rgb(36.26709%, 45.953369%, 70.155334%)" stop-opacity="1"/>
<stop offset="0.0195312" stop-color="rgb(36.642456%, 45.649719%, 70.036316%)" stop-opacity="1"/>
<stop offset="0.0234375" stop-color="rgb(37.019348%, 45.346069%, 69.917297%)" stop-opacity="1"/>
<stop offset="0.0273438" stop-color="rgb(37.394714%, 45.042419%, 69.798279%)" stop-opacity="1"/>
<stop offset="0.03125" stop-color="rgb(37.770081%, 44.73877%, 69.67926%)" stop-opacity="1"/>
<stop offset="0.0351562" stop-color="rgb(38.145447%, 44.43512%, 69.560242%)" stop-opacity="1"/>
<stop offset="0.0390625" stop-color="rgb(38.520813%, 44.13147%, 69.441223%)" stop-opacity="1"/>
<stop offset="0.0429688" stop-color="rgb(38.896179%, 43.82782%, 69.322205%)" stop-opacity="1"/>
<stop offset="0.046875" stop-color="rgb(39.273071%, 43.52417%, 69.203186%)" stop-opacity="1"/>
<stop offset="0.0507812" stop-color="rgb(39.648438%, 43.22052%, 69.084167%)" stop-opacity="1"/>
<stop offset="0.0546875" stop-color="rgb(40.023804%, 42.91687%, 68.965149%)" stop-opacity="1"/>
<stop offset="0.0585938" stop-color="rgb(40.39917%, 42.61322%, 68.84613%)" stop-opacity="1"/>
<stop offset="0.0625" stop-color="rgb(40.774536%, 42.30957%, 68.727112%)" stop-opacity="1"/>
<stop offset="0.0664062" stop-color="rgb(41.149902%, 42.00592%, 68.608093%)" stop-opacity="1"/>
<stop offset="0.0703125" stop-color="rgb(41.525269%, 41.703796%, 68.489075%)" stop-opacity="1"/>
<stop offset="0.0742188" stop-color="rgb(41.900635%, 41.400146%, 68.370056%)" stop-opacity="1"/>
<stop offset="0.078125" stop-color="rgb(42.277527%, 41.096497%, 68.251038%)" stop-opacity="1"/>
<stop offset="0.0820312" stop-color="rgb(42.652893%, 40.792847%, 68.132019%)" stop-opacity="1"/>
<stop offset="0.0859375" stop-color="rgb(43.028259%, 40.489197%, 68.014526%)" stop-opacity="1"/>
<stop offset="0.0898438" stop-color="rgb(43.403625%, 40.185547%, 67.895508%)" stop-opacity="1"/>
<stop offset="0.09375" stop-color="rgb(43.778992%, 39.881897%, 67.776489%)" stop-opacity="1"/>
<stop offset="0.0976562" stop-color="rgb(44.154358%, 39.578247%, 67.657471%)" stop-opacity="1"/>
<stop offset="0.101562" stop-color="rgb(44.53125%, 39.274597%, 67.538452%)" stop-opacity="1"/>
<stop offset="0.105469" stop-color="rgb(44.906616%, 38.970947%, 67.419434%)" stop-opacity="1"/>
<stop offset="0.109375" stop-color="rgb(45.281982%, 38.667297%, 67.300415%)" stop-opacity="1"/>
<stop offset="0.113281" stop-color="rgb(45.657349%, 38.363647%, 67.181396%)" stop-opacity="1"/>
<stop offset="0.117188" stop-color="rgb(46.032715%, 38.059998%, 67.062378%)" stop-opacity="1"/>
<stop offset="0.121094" stop-color="rgb(46.408081%, 37.756348%, 66.943359%)" stop-opacity="1"/>
<stop offset="0.125" stop-color="rgb(46.783447%, 37.452698%, 66.824341%)" stop-opacity="1"/>
<stop offset="0.128906" stop-color="rgb(47.158813%, 37.149048%, 66.705322%)" stop-opacity="1"/>
<stop offset="0.132812" stop-color="rgb(47.535706%, 36.845398%, 66.586304%)" stop-opacity="1"/>
<stop offset="0.136719" stop-color="rgb(47.911072%, 36.541748%, 66.467285%)" stop-opacity="1"/>
<stop offset="0.140625" stop-color="rgb(48.286438%, 36.238098%, 66.348267%)" stop-opacity="1"/>
<stop offset="0.144531" stop-color="rgb(48.661804%, 35.934448%, 66.229248%)" stop-opacity="1"/>
<stop offset="0.148438" stop-color="rgb(49.03717%, 35.630798%, 66.110229%)" stop-opacity="1"/>
<stop offset="0.152344" stop-color="rgb(49.412537%, 35.327148%, 65.991211%)" stop-opacity="1"/>
<stop offset="0.15625" stop-color="rgb(49.789429%, 35.023499%, 65.873718%)" stop-opacity="1"/>
<stop offset="0.160156" stop-color="rgb(50.164795%, 34.719849%, 65.7547%)" stop-opacity="1"/>
<stop offset="0.164062" stop-color="rgb(50.540161%, 34.416199%, 65.635681%)" stop-opacity="1"/>
<stop offset="0.167969" stop-color="rgb(50.915527%, 34.112549%, 65.516663%)" stop-opacity="1"/>
<stop offset="0.171875" stop-color="rgb(51.290894%, 33.808899%, 65.397644%)" stop-opacity="1"/>
<stop offset="0.175781" stop-color="rgb(51.66626%, 33.505249%, 65.278625%)" stop-opacity="1"/>
<stop offset="0.179688" stop-color="rgb(52.041626%, 33.201599%, 65.159607%)" stop-opacity="1"/>
<stop offset="0.183594" stop-color="rgb(52.416992%, 32.897949%, 65.040588%)" stop-opacity="1"/>
<stop offset="0.1875" stop-color="rgb(52.793884%, 32.595825%, 64.92157%)" stop-opacity="1"/>
<stop offset="0.191406" stop-color="rgb(53.16925%, 32.292175%, 64.802551%)" stop-opacity="1"/>
<stop offset="0.195312" stop-color="rgb(53.544617%, 31.988525%, 64.683533%)" stop-opacity="1"/>
<stop offset="0.199219" stop-color="rgb(53.919983%, 31.684875%, 64.564514%)" stop-opacity="1"/>
<stop offset="0.203125" stop-color="rgb(54.295349%, 31.381226%, 64.445496%)" stop-opacity="1"/>
<stop offset="0.207031" stop-color="rgb(54.670715%, 31.077576%, 64.326477%)" stop-opacity="1"/>
<stop offset="0.210938" stop-color="rgb(55.047607%, 30.773926%, 64.207458%)" stop-opacity="1"/>
<stop offset="0.214844" stop-color="rgb(55.422974%, 30.470276%, 64.08844%)" stop-opacity="1"/>
<stop offset="0.21875" stop-color="rgb(55.79834%, 30.166626%, 63.969421%)" stop-opacity="1"/>
<stop offset="0.222656" stop-color="rgb(56.173706%, 29.862976%, 63.850403%)" stop-opacity="1"/>
<stop offset="0.226562" stop-color="rgb(56.549072%, 29.559326%, 63.73291%)" stop-opacity="1"/>
<stop offset="0.230469" stop-color="rgb(56.924438%, 29.255676%, 63.613892%)" stop-opacity="1"/>
<stop offset="0.234375" stop-color="rgb(57.299805%, 28.952026%, 63.494873%)" stop-opacity="1"/>
<stop offset="0.238281" stop-color="rgb(57.675171%, 28.648376%, 63.375854%)" stop-opacity="1"/>
<stop offset="0.242188" stop-color="rgb(58.052063%, 28.344727%, 63.256836%)" stop-opacity="1"/>
<stop offset="0.246094" stop-color="rgb(58.427429%, 28.041077%, 63.137817%)" stop-opacity="1"/>
<stop offset="0.25" stop-color="rgb(58.802795%, 27.737427%, 63.018799%)" stop-opacity="1"/>
<stop offset="0.253906" stop-color="rgb(59.178162%, 27.433777%, 62.89978%)" stop-opacity="1"/>
<stop offset="0.257812" stop-color="rgb(59.553528%, 27.130127%, 62.780762%)" stop-opacity="1"/>
<stop offset="0.261719" stop-color="rgb(59.928894%, 26.826477%, 62.661743%)" stop-opacity="1"/>
<stop offset="0.265625" stop-color="rgb(60.305786%, 26.522827%, 62.542725%)" stop-opacity="1"/>
<stop offset="0.269531" stop-color="rgb(60.681152%, 26.219177%, 62.423706%)" stop-opacity="1"/>
<stop offset="0.273438" stop-color="rgb(61.056519%, 25.915527%, 62.304688%)" stop-opacity="1"/>
<stop offset="0.277344" stop-color="rgb(61.431885%, 25.611877%, 62.185669%)" stop-opacity="1"/>
<stop offset="0.28125" stop-color="rgb(61.807251%, 25.308228%, 62.06665%)" stop-opacity="1"/>
<stop offset="0.285156" stop-color="rgb(62.182617%, 25.004578%, 61.947632%)" stop-opacity="1"/>
<stop offset="0.289062" stop-color="rgb(62.557983%, 24.700928%, 61.828613%)" stop-opacity="1"/>
<stop offset="0.292969" stop-color="rgb(62.93335%, 24.397278%, 61.709595%)" stop-opacity="1"/>
<stop offset="0.296875" stop-color="rgb(63.310242%, 24.095154%, 61.592102%)" stop-opacity="1"/>
<stop offset="0.300781" stop-color="rgb(63.685608%, 23.791504%, 61.473083%)" stop-opacity="1"/>
<stop offset="0.304687" stop-color="rgb(64.060974%, 23.487854%, 61.354065%)" stop-opacity="1"/>
<stop offset="0.308594" stop-color="rgb(64.43634%, 23.184204%, 61.235046%)" stop-opacity="1"/>
<stop offset="0.3125" stop-color="rgb(64.811707%, 22.880554%, 61.116028%)" stop-opacity="1"/>
<stop offset="0.316406" stop-color="rgb(65.187073%, 22.576904%, 60.997009%)" stop-opacity="1"/>
<stop offset="0.320313" stop-color="rgb(65.563965%, 22.273254%, 60.877991%)" stop-opacity="1"/>
<stop offset="0.324219" stop-color="rgb(65.939331%, 21.969604%, 60.758972%)" stop-opacity="1"/>
<stop offset="0.328125" stop-color="rgb(66.314697%, 21.665955%, 60.639954%)" stop-opacity="1"/>
<stop offset="0.332031" stop-color="rgb(66.690063%, 21.362305%, 60.520935%)" stop-opacity="1"/>
<stop offset="0.335938" stop-color="rgb(67.06543%, 21.058655%, 60.401917%)" stop-opacity="1"/>
<stop offset="0.339844" stop-color="rgb(67.440796%, 20.755005%, 60.282898%)" stop-opacity="1"/>
<stop offset="0.34375" stop-color="rgb(67.816162%, 20.451355%, 60.163879%)" stop-opacity="1"/>
<stop offset="0.347656" stop-color="rgb(68.191528%, 20.147705%, 60.044861%)" stop-opacity="1"/>
<stop offset="0.351562" stop-color="rgb(68.56842%, 19.844055%, 59.925842%)" stop-opacity="1"/>
<stop offset="0.355469" stop-color="rgb(68.943787%, 19.540405%, 59.806824%)" stop-opacity="1"/>
<stop offset="0.359375" stop-color="rgb(69.319153%, 19.236755%, 59.687805%)" stop-opacity="1"/>
<stop offset="0.363281" stop-color="rgb(69.694519%, 18.933105%, 59.568787%)" stop-opacity="1"/>
<stop offset="0.367188" stop-color="rgb(70.069885%, 18.629456%, 59.451294%)" stop-opacity="1"/>
<stop offset="0.371094" stop-color="rgb(70.445251%, 18.325806%, 59.332275%)" stop-opacity="1"/>
<stop offset="0.375" stop-color="rgb(70.822144%, 18.022156%, 59.213257%)" stop-opacity="1"/>
<stop offset="0.378906" stop-color="rgb(71.19751%, 17.718506%, 59.094238%)" stop-opacity="1"/>
<stop offset="0.382812" stop-color="rgb(71.572876%, 17.414856%, 58.97522%)" stop-opacity="1"/>
<stop offset="0.386719" stop-color="rgb(71.948242%, 17.111206%, 58.856201%)" stop-opacity="1"/>
<stop offset="0.390625" stop-color="rgb(72.323608%, 16.807556%, 58.737183%)" stop-opacity="1"/>
<stop offset="0.394531" stop-color="rgb(72.698975%, 16.503906%, 58.618164%)" stop-opacity="1"/>
<stop offset="0.398438" stop-color="rgb(73.074341%, 16.200256%, 58.499146%)" stop-opacity="1"/>
<stop offset="0.402344" stop-color="rgb(73.449707%, 15.896606%, 58.380127%)" stop-opacity="1"/>
<stop offset="0.40625" stop-color="rgb(73.826599%, 15.592957%, 58.261108%)" stop-opacity="1"/>
<stop offset="0.410156" stop-color="rgb(74.201965%, 15.289307%, 58.14209%)" stop-opacity="1"/>
<stop offset="0.414062" stop-color="rgb(74.577332%, 14.987183%, 58.023071%)" stop-opacity="1"/>
<stop offset="0.417969" stop-color="rgb(74.952698%, 14.683533%, 57.904053%)" stop-opacity="1"/>
<stop offset="0.421875" stop-color="rgb(75.328064%, 14.379883%, 57.785034%)" stop-opacity="1"/>
<stop offset="0.425781" stop-color="rgb(75.70343%, 14.076233%, 57.666016%)" stop-opacity="1"/>
<stop offset="0.429687" stop-color="rgb(76.080322%, 13.772583%, 57.546997%)" stop-opacity="1"/>
<stop offset="0.433594" stop-color="rgb(76.455688%, 13.468933%, 57.427979%)" stop-opacity="1"/>
<stop offset="0.4375" stop-color="rgb(76.831055%, 13.165283%, 57.310486%)" stop-opacity="1"/>
<stop offset="0.441406" stop-color="rgb(77.206421%, 12.861633%, 57.191467%)" stop-opacity="1"/>
<stop offset="0.445313" stop-color="rgb(77.581787%, 12.557983%, 57.072449%)" stop-opacity="1"/>
<stop offset="0.449219" stop-color="rgb(77.957153%, 12.254333%, 56.95343%)" stop-opacity="1"/>
<stop offset="0.453125" stop-color="rgb(78.33252%, 11.950684%, 56.834412%)" stop-opacity="1"/>
<stop offset="0.457031" stop-color="rgb(78.707886%, 11.647034%, 56.715393%)" stop-opacity="1"/>
<stop offset="0.460938" stop-color="rgb(79.084778%, 11.343384%, 56.596375%)" stop-opacity="1"/>
<stop offset="0.464844" stop-color="rgb(79.460144%, 11.039734%, 56.477356%)" stop-opacity="1"/>
<stop offset="0.46875" stop-color="rgb(79.83551%, 10.736084%, 56.358337%)" stop-opacity="1"/>
<stop offset="0.472656" stop-color="rgb(80.210876%, 10.432434%, 56.239319%)" stop-opacity="1"/>
<stop offset="0.476562" stop-color="rgb(80.586243%, 10.128784%, 56.1203%)" stop-opacity="1"/>
<stop offset="0.480469" stop-color="rgb(80.961609%, 9.825134%, 56.001282%)" stop-opacity="1"/>
<stop offset="0.484375" stop-color="rgb(81.338501%, 9.521484%, 55.882263%)" stop-opacity="1"/>
<stop offset="0.488281" stop-color="rgb(81.607056%, 9.27887%, 55.781555%)" stop-opacity="1"/>
<stop offset="0.492188" stop-color="rgb(81.877136%, 9.036255%, 55.682373%)" stop-opacity="1"/>
<stop offset="0.496094" stop-color="rgb(81.636047%, 9.086609%, 55.673218%)" stop-opacity="1"/>
<stop offset="0.5" stop-color="rgb(81.394958%, 9.136963%, 55.664062%)" stop-opacity="1"/>
<stop offset="0.503906" stop-color="rgb(81.15387%, 9.185791%, 55.653381%)" stop-opacity="1"/>
<stop offset="0.507812" stop-color="rgb(80.912781%, 9.236145%, 55.644226%)" stop-opacity="1"/>
<stop offset="0.511719" stop-color="rgb(80.671692%, 9.286499%, 55.635071%)" stop-opacity="1"/>
<stop offset="0.515625" stop-color="rgb(80.430603%, 9.336853%, 55.625916%)" stop-opacity="1"/>
<stop offset="0.519531" stop-color="rgb(80.189514%, 9.385681%, 55.61676%)" stop-opacity="1"/>
<stop offset="0.523437" stop-color="rgb(79.949951%, 9.436035%, 55.607605%)" stop-opacity="1"/>
<stop offset="0.527344" stop-color="rgb(79.708862%, 9.486389%, 55.596924%)" stop-opacity="1"/>
<stop offset="0.53125" stop-color="rgb(79.467773%, 9.536743%, 55.587769%)" stop-opacity="1"/>
<stop offset="0.535156" stop-color="rgb(79.226685%, 9.587097%, 55.578613%)" stop-opacity="1"/>
<stop offset="0.539063" stop-color="rgb(78.985596%, 9.637451%, 55.569458%)" stop-opacity="1"/>
<stop offset="0.542969" stop-color="rgb(78.744507%, 9.686279%, 55.560303%)" stop-opacity="1"/>
<stop offset="0.546875" stop-color="rgb(78.503418%, 9.736633%, 55.551147%)" stop-opacity="1"/>
<stop offset="0.550781" stop-color="rgb(78.262329%, 9.786987%, 55.540466%)" stop-opacity="1"/>
<stop offset="0.554688" stop-color="rgb(78.02124%, 9.837341%, 55.531311%)" stop-opacity="1"/>
<stop offset="0.558594" stop-color="rgb(77.780151%, 9.887695%, 55.522156%)" stop-opacity="1"/>
<stop offset="0.5625" stop-color="rgb(77.539062%, 9.938049%, 55.513%)" stop-opacity="1"/>
<stop offset="0.566406" stop-color="rgb(77.297974%, 9.986877%, 55.503845%)" stop-opacity="1"/>
<stop offset="0.570312" stop-color="rgb(77.056885%, 10.037231%, 55.49469%)" stop-opacity="1"/>
<stop offset="0.574219" stop-color="rgb(76.815796%, 10.087585%, 55.485535%)" stop-opacity="1"/>
<stop offset="0.578125" stop-color="rgb(76.574707%, 10.137939%, 55.476379%)" stop-opacity="1"/>
<stop offset="0.582031" stop-color="rgb(76.333618%, 10.188293%, 55.465698%)" stop-opacity="1"/>
<stop offset="0.585938" stop-color="rgb(76.092529%, 10.238647%, 55.456543%)" stop-opacity="1"/>
<stop offset="0.589844" stop-color="rgb(75.85144%, 10.287476%, 55.447388%)" stop-opacity="1"/>
<stop offset="0.59375" stop-color="rgb(75.611877%, 10.33783%, 55.438232%)" stop-opacity="1"/>
<stop offset="0.597656" stop-color="rgb(75.370789%, 10.388184%, 55.429077%)" stop-opacity="1"/>
<stop offset="0.601562" stop-color="rgb(75.1297%, 10.438538%, 55.419922%)" stop-opacity="1"/>
<stop offset="0.605469" stop-color="rgb(74.888611%, 10.487366%, 55.409241%)" stop-opacity="1"/>
<stop offset="0.609375" stop-color="rgb(74.647522%, 10.53772%, 55.400085%)" stop-opacity="1"/>
<stop offset="0.613281" stop-color="rgb(74.406433%, 10.588074%, 55.39093%)" stop-opacity="1"/>
<stop offset="0.617187" stop-color="rgb(74.165344%, 10.638428%, 55.381775%)" stop-opacity="1"/>
<stop offset="0.621094" stop-color="rgb(73.924255%, 10.688782%, 55.37262%)" stop-opacity="1"/>
<stop offset="0.625" stop-color="rgb(73.683167%, 10.739136%, 55.363464%)" stop-opacity="1"/>
<stop offset="0.628906" stop-color="rgb(73.442078%, 10.787964%, 55.352783%)" stop-opacity="1"/>
<stop offset="0.632813" stop-color="rgb(73.200989%, 10.838318%, 55.343628%)" stop-opacity="1"/>
<stop offset="0.636719" stop-color="rgb(72.9599%, 10.888672%, 55.334473%)" stop-opacity="1"/>
<stop offset="0.640625" stop-color="rgb(72.718811%, 10.939026%, 55.325317%)" stop-opacity="1"/>
<stop offset="0.644531" stop-color="rgb(72.477722%, 10.98938%, 55.316162%)" stop-opacity="1"/>
<stop offset="0.648438" stop-color="rgb(72.236633%, 11.039734%, 55.307007%)" stop-opacity="1"/>
<stop offset="0.652344" stop-color="rgb(71.995544%, 11.088562%, 55.297852%)" stop-opacity="1"/>
<stop offset="0.65625" stop-color="rgb(71.755981%, 11.138916%, 55.288696%)" stop-opacity="1"/>
<stop offset="0.660156" stop-color="rgb(71.514893%, 11.18927%, 55.278015%)" stop-opacity="1"/>
<stop offset="0.664062" stop-color="rgb(71.273804%, 11.239624%, 55.26886%)" stop-opacity="1"/>
<stop offset="0.667969" stop-color="rgb(71.032715%, 11.289978%, 55.259705%)" stop-opacity="1"/>
<stop offset="0.671875" stop-color="rgb(70.791626%, 11.340332%, 55.250549%)" stop-opacity="1"/>
<stop offset="0.675781" stop-color="rgb(70.550537%, 11.38916%, 55.241394%)" stop-opacity="1"/>
<stop offset="0.679688" stop-color="rgb(70.309448%, 11.439514%, 55.232239%)" stop-opacity="1"/>
<stop offset="0.683594" stop-color="rgb(70.068359%, 11.489868%, 55.221558%)" stop-opacity="1"/>
<stop offset="0.6875" stop-color="rgb(69.827271%, 11.540222%, 55.212402%)" stop-opacity="1"/>
<stop offset="0.691406" stop-color="rgb(69.586182%, 11.58905%, 55.203247%)" stop-opacity="1"/>
<stop offset="0.695312" stop-color="rgb(69.345093%, 11.639404%, 55.194092%)" stop-opacity="1"/>
<stop offset="0.699219" stop-color="rgb(69.104004%, 11.689758%, 55.184937%)" stop-opacity="1"/>
<stop offset="0.703125" stop-color="rgb(68.862915%, 11.740112%, 55.175781%)" stop-opacity="1"/>
<stop offset="0.707031" stop-color="rgb(68.621826%, 11.790466%, 55.1651%)" stop-opacity="1"/>
<stop offset="0.710937" stop-color="rgb(68.380737%, 11.84082%, 55.155945%)" stop-opacity="1"/>
<stop offset="0.714844" stop-color="rgb(68.139648%, 11.889648%, 55.14679%)" stop-opacity="1"/>
<stop offset="0.71875" stop-color="rgb(67.89856%, 11.940002%, 55.137634%)" stop-opacity="1"/>
<stop offset="0.722656" stop-color="rgb(67.657471%, 11.990356%, 55.128479%)" stop-opacity="1"/>
<stop offset="0.726563" stop-color="rgb(67.417908%, 12.04071%, 55.119324%)" stop-opacity="1"/>
<stop offset="0.730469" stop-color="rgb(67.176819%, 12.091064%, 55.108643%)" stop-opacity="1"/>
<stop offset="0.734375" stop-color="rgb(66.93573%, 12.141418%, 55.099487%)" stop-opacity="1"/>
<stop offset="0.738281" stop-color="rgb(66.694641%, 12.190247%, 55.090332%)" stop-opacity="1"/>
<stop offset="0.742188" stop-color="rgb(66.453552%, 12.240601%, 55.081177%)" stop-opacity="1"/>
<stop offset="0.746094" stop-color="rgb(66.212463%, 12.290955%, 55.072021%)" stop-opacity="1"/>
<stop offset="0.75" stop-color="rgb(65.971375%, 12.341309%, 55.062866%)" stop-opacity="1"/>
<stop offset="0.753906" stop-color="rgb(65.730286%, 12.391663%, 55.053711%)" stop-opacity="1"/>
<stop offset="0.757812" stop-color="rgb(65.489197%, 12.442017%, 55.044556%)" stop-opacity="1"/>
<stop offset="0.761719" stop-color="rgb(65.248108%, 12.490845%, 55.033875%)" stop-opacity="1"/>
<stop offset="0.765625" stop-color="rgb(65.007019%, 12.541199%, 55.024719%)" stop-opacity="1"/>
<stop offset="0.769531" stop-color="rgb(64.76593%, 12.591553%, 55.015564%)" stop-opacity="1"/>
<stop offset="0.773437" stop-color="rgb(64.524841%, 12.641907%, 55.006409%)" stop-opacity="1"/>
<stop offset="0.777344" stop-color="rgb(64.283752%, 12.690735%, 54.997253%)" stop-opacity="1"/>
<stop offset="0.78125" stop-color="rgb(64.042664%, 12.741089%, 54.988098%)" stop-opacity="1"/>
<stop offset="0.785156" stop-color="rgb(63.801575%, 12.791443%, 54.977417%)" stop-opacity="1"/>
<stop offset="0.789063" stop-color="rgb(63.560486%, 12.841797%, 54.968262%)" stop-opacity="1"/>
<stop offset="0.792969" stop-color="rgb(63.319397%, 12.892151%, 54.959106%)" stop-opacity="1"/>
<stop offset="0.796875" stop-color="rgb(63.079834%, 12.942505%, 54.949951%)" stop-opacity="1"/>
<stop offset="0.800781" stop-color="rgb(62.838745%, 12.991333%, 54.940796%)" stop-opacity="1"/>
<stop offset="0.804688" stop-color="rgb(62.597656%, 13.041687%, 54.931641%)" stop-opacity="1"/>
<stop offset="0.808594" stop-color="rgb(62.356567%, 13.092041%, 54.920959%)" stop-opacity="1"/>
<stop offset="0.8125" stop-color="rgb(62.115479%, 13.142395%, 54.911804%)" stop-opacity="1"/>
<stop offset="0.816406" stop-color="rgb(61.87439%, 13.192749%, 54.902649%)" stop-opacity="1"/>
<stop offset="0.820312" stop-color="rgb(61.633301%, 13.243103%, 54.893494%)" stop-opacity="1"/>
<stop offset="0.824219" stop-color="rgb(61.392212%, 13.291931%, 54.884338%)" stop-opacity="1"/>
<stop offset="0.828125" stop-color="rgb(61.151123%, 13.342285%, 54.875183%)" stop-opacity="1"/>
<stop offset="0.832031" stop-color="rgb(60.910034%, 13.392639%, 54.864502%)" stop-opacity="1"/>
<stop offset="0.835938" stop-color="rgb(60.668945%, 13.442993%, 54.855347%)" stop-opacity="1"/>
<stop offset="0.839844" stop-color="rgb(60.427856%, 13.493347%, 54.846191%)" stop-opacity="1"/>
<stop offset="0.84375" stop-color="rgb(60.186768%, 13.543701%, 54.837036%)" stop-opacity="1"/>
<stop offset="0.847656" stop-color="rgb(59.945679%, 13.592529%, 54.827881%)" stop-opacity="1"/>
<stop offset="0.851562" stop-color="rgb(59.70459%, 13.642883%, 54.818726%)" stop-opacity="1"/>
<stop offset="0.855469" stop-color="rgb(59.463501%, 13.693237%, 54.80957%)" stop-opacity="1"/>
<stop offset="0.859375" stop-color="rgb(59.223938%, 13.743591%, 54.800415%)" stop-opacity="1"/>
<stop offset="0.863281" stop-color="rgb(58.982849%, 13.792419%, 54.789734%)" stop-opacity="1"/>
<stop offset="0.867187" stop-color="rgb(58.74176%, 13.842773%, 54.780579%)" stop-opacity="1"/>
<stop offset="0.871094" stop-color="rgb(58.500671%, 13.893127%, 54.771423%)" stop-opacity="1"/>
<stop offset="0.875" stop-color="rgb(58.259583%, 13.943481%, 54.762268%)" stop-opacity="1"/>
<stop offset="0.878906" stop-color="rgb(58.018494%, 13.993835%, 54.753113%)" stop-opacity="1"/>
<stop offset="0.882813" stop-color="rgb(57.777405%, 14.044189%, 54.743958%)" stop-opacity="1"/>
<stop offset="0.886719" stop-color="rgb(57.536316%, 14.093018%, 54.733276%)" stop-opacity="1"/>
<stop offset="0.890625" stop-color="rgb(57.295227%, 14.143372%, 54.724121%)" stop-opacity="1"/>
<stop offset="0.894531" stop-color="rgb(57.054138%, 14.193726%, 54.714966%)" stop-opacity="1"/>
<stop offset="0.898438" stop-color="rgb(56.813049%, 14.24408%, 54.705811%)" stop-opacity="1"/>
<stop offset="0.902344" stop-color="rgb(56.57196%, 14.294434%, 54.696655%)" stop-opacity="1"/>
<stop offset="0.90625" stop-color="rgb(56.330872%, 14.344788%, 54.6875%)" stop-opacity="1"/>
<stop offset="0.910156" stop-color="rgb(56.089783%, 14.393616%, 54.676819%)" stop-opacity="1"/>
<stop offset="0.914062" stop-color="rgb(55.848694%, 14.44397%, 54.667664%)" stop-opacity="1"/>
<stop offset="0.917969" stop-color="rgb(55.607605%, 14.494324%, 54.658508%)" stop-opacity="1"/>
<stop offset="0.921875" stop-color="rgb(55.366516%, 14.544678%, 54.649353%)" stop-opacity="1"/>
<stop offset="0.925781" stop-color="rgb(55.125427%, 14.595032%, 54.640198%)" stop-opacity="1"/>
<stop offset="0.929688" stop-color="rgb(54.885864%, 14.645386%, 54.631042%)" stop-opacity="1"/>
<stop offset="0.933594" stop-color="rgb(54.644775%, 14.694214%, 54.620361%)" stop-opacity="1"/>
<stop offset="0.9375" stop-color="rgb(54.403687%, 14.744568%, 54.611206%)" stop-opacity="1"/>
<stop offset="0.941406" stop-color="rgb(54.162598%, 14.794922%, 54.602051%)" stop-opacity="1"/>
<stop offset="0.945312" stop-color="rgb(53.921509%, 14.845276%, 54.592896%)" stop-opacity="1"/>
<stop offset="0.949219" stop-color="rgb(53.68042%, 14.89563%, 54.58374%)" stop-opacity="1"/>
<stop offset="0.953125" stop-color="rgb(53.439331%, 14.945984%, 54.574585%)" stop-opacity="1"/>
<stop offset="0.957031" stop-color="rgb(53.198242%, 14.994812%, 54.56543%)" stop-opacity="1"/>
<stop offset="0.960937" stop-color="rgb(52.957153%, 15.045166%, 54.556274%)" stop-opacity="1"/>
<stop offset="0.964844" stop-color="rgb(52.716064%, 15.09552%, 54.545593%)" stop-opacity="1"/>
<stop offset="0.96875" stop-color="rgb(52.474976%, 15.145874%, 54.536438%)" stop-opacity="1"/>
<stop offset="0.972656" stop-color="rgb(52.233887%, 15.194702%, 54.527283%)" stop-opacity="1"/>
<stop offset="0.976563" stop-color="rgb(51.992798%, 15.245056%, 54.518127%)" stop-opacity="1"/>
<stop offset="0.984375" stop-color="rgb(51.878357%, 15.26947%, 54.51355%)" stop-opacity="1"/>
<stop offset="1" stop-color="rgb(51.763916%, 15.293884%, 54.508972%)" stop-opacity="1"/>
</linearGradient>
</defs>
<g clip-path="url(#clip-0)">
<g clip-path="url(#clip-1)">
<g clip-path="url(#clip-2)">
<path fill-rule="nonzero" fill="url(#linear-pattern-0)" d="M 1637.121094 1427.160156 L 1637.121094 572.839844 L 362.878906 572.839844 L 362.878906 1427.160156 Z M 1637.121094 1427.160156 "/>
</g>
</g>
</g>
</svg>
